<svg width="285" height="362" fill="none" xmlns="http://www.w3.org/2000/svg"><g clip-path="url(#clip0)"><path d="M284.921 183.923c-.707-21.674-7.091-44.169-18.854-66.954l-.719 1.128-15.126 25.501-13.022 8.509-29.17 14.347-17.57 7.849 1.438 11.83 1.447 15.525.615 10.893.199 11.104-.478 7.107-1.188.983-55.099 19.319-43.228-18.614-1.06-5.581-1.305-10.553-.927-12.232V183.5l.91-15.267 1.962-19.128 1.002-4.69-2.116-8.766-1.758-12.365.154-5.523 1.421-7.223 1.904-4.329 2.299-2.903 6.076-3.362 4.352-.486 3.596-6.576 4.821-6.108 4.768-4.146 3.657-2.003-.989-14.272-2.34-3.969-1.172-2.413-2.257-.83-3.354-1.898-4.988-4.69-3.662-7.356-1.347-7.165-.241.058.117-.726-.071-.36.145-.12.674-4.325c-19.52 11.693-37.933 29.187-53.312 47.349-27.479 32.504-45.397 67.144-49.982 102.697-4.468 35.548 4.177 72.017 26.373 91.721 22.196 19.605 57.834 22.449 90.72 35.448 32.787 13.103 62.826 36.266 86.755 32.202 23.925-4.167 41.744-35.66 56.001-66.228 14.253-30.688 25.047-60.44 23.929-91.825z" fill="#F2F2F2"/><path d="M161.551 21.798l-6.297 6.34-5.819 4.11 1.717 3.86 1.808 5.055.769 5.042.395 5.506-.682 6.365-2.864 7.298-2.793 4.147-4.385 3.661-4.452 1.555.279 1.617.266 3.388 1.662.286 6.401 2.683 3.982 2.098 5.063 4.1 5.108 5.217 4.905 6.8 5.682 9.085 3.196 7.29 4.377 11.473 1.309 4.408.678.382 3.828-3.429 11.879-9.301 11.115-8.596 3.067-4.598 3.908-4.209 5.12-3.176 3.787 1.285 3.654 4.147 1.159 5.539-2.947 5.992-5.865 6.523-5.05 3.487-5.723 7.812-7.216 9.508-2.756 3.516 16.157-6.726 15.923-6.816 19.814-33.243 3.417-3.214a270.888 270.888 0 00-8.084-11.88c-21.535-30.016-52.131-60.124-84.502-66.68l-.99 2.293z" fill="#F2F2F2"/><path d="M190.369 174.341c11.372-4.586 50.792-22.96 60.585-31.336 11.052-9.45-2.157-16.756-6.318-14.322-3.146 1.841-28.68 12.921-44.799 19.402" stroke="#000" stroke-width="2.5" stroke-miterlimit="10" stroke-linecap="round"/><path d="M225.786 119.383l4.273 8.662M211.492 90.382l5.511 11.183" stroke="#000" stroke-width="8" stroke-linecap="round" stroke-linejoin="round"/><path d="M122.933 66.378a31.294 31.294 0 01-3.512-6.635M144.028 25.854c5.016 4.341 8.77 11.755 9.726 20.471 1.571 14.343-5.025 26.882-14.806 28.412M188.311 162.059c6.484 34.926 6.43 67.895 5.175 69.147-2.702 2.695-65.257 15.342-99.34 1.244-4.112-17.83-4.806-55.518.415-89.071M139.501 79.854c20.683 4.56 33.822 27.4 42.014 54.021M107.072 99.23c4.514-9.026 10.079-15.673 16.85-18.58" stroke="#000" stroke-width="2.5" stroke-miterlimit="10" stroke-linecap="round"/><path d="M112.064 168.237c5.403 10.259 22.99 30.212 30.209 30.212 20.687 0 62.51-56.074 73.114-71.113 4.958-3.438 13.766-10.313 13.762-17.283 0-3.5-3.741-10.781-9.232-9.487-3.782.887-8.974 8.446-11.222 11.656-7.611 5.241-55.768 44.965-59.476 48.813-.121-2.509-2.033-6.975-4.626-11.64M119.421 59.743c-6.455-.763-15.566-10.337-15.566-24.406 0-7.783 6.334-12.336 8.392-14.463 4.156-4.313 6.65-15.811 15.433-15.811 2.494 0 6.368 1.447 8.803 1.447 3.047 0 9.112-5.992 15.226-5.992 10.241 0 12.532 9.405 12.532 12.295 0 10.582-13.21 18.568-14.964 19.522-.744-1.215-4.156-5.76-5.291-6.448-1.368 2.836-10.558 7.534-17.491 11.751-1.862 1.136-3.396 5.942-4.476 10.802" stroke="#000" stroke-width="2.5" stroke-linecap="round" stroke-linejoin="round"/><path d="M120.402 57.894a5.23 5.23 0 01-5.029-1.556 5.19 5.19 0 01-1.108-5.135 5.196 5.196 0 011.498-2.274 5.222 5.222 0 015.165-1.022 5.22 5.22 0 012.255 1.532M138.948 74.737c.187 1.737.374 3.479.553 5.117M134.941 90.577c-4.605.083-10.391-.83-10.503-2.45l-1.505-21.75M99.25 101.42c-18.364 9.981-1.942 61.816 9.651 67.124 13.109 0 39.557-18.929 39.557-25.319 0-6.39-25.4-54.742-49.209-41.805z" stroke="#000" stroke-width="2.5" stroke-miterlimit="10" stroke-linecap="round"/><path d="M94.253 232.496c-8.608 38.513-.457 122.007 1.8 129.504h56.354c3.936-10.366 20.621-102.602 24.623-126.631-21.472 3.732-58.985 6.9-82.777-2.873z" fill="#000"/><path d="M192.48 231.745c-2.764 1.12-10.566 2.965-20.965 4.516l-24.607 89.241 16.231 36.49h38.992c0-15.583-2.822-104.103-9.651-130.247z" fill="#000"/><path d="M252.716 105.251c0 8.604 10.259 13.145 11.751 13.145 3.126 0 3.125-9.417 3.125-11.855 0-5.557-5.432-9.624-9.56-9.624-4.127 0-5.316 3.458-5.316 8.334z" stroke="#000" stroke-width="2.5" stroke-miterlimit="10" stroke-linecap="round"/><path d="M264.454 118.396c-1.492 0-11.75-4.541-11.75-13.145 0-4.876 1.155-8.334 5.299-8.334 2.008 0 4.319.958 6.169 2.575l-1.946-24.88-35.505 2.766 5.358 68.418 35.501-2.741-1.978-25.19a1.585 1.585 0 01-1.148.531z" fill="#000"/></g><defs><clipPath id="clip0"><path fill="#fff" d="M0 0h285v362H0z"/></clipPath></defs></svg>