<svg width="474" height="474" fill="none" xmlns="http://www.w3.org/2000/svg"><path d="M234.946 35.242v226.477h7.722v49.071h181.965V35.242H234.946z" fill="#F3F3F3"/><path d="M424.633 35.242H234.946v17.747h189.687V35.242zM438.055 75.342H278.751v45.39h159.304v-45.39z" fill="#DFDFDF"/><path d="M430.475 84.127H288.054v4.112h142.421v-4.112zM430.475 93.923H288.054v4.112h142.421v-4.112zM430.475 103.723H288.054v4.112h142.421v-4.112z" fill="#F9F9F9"/><path d="M438.055 138.973H278.751v45.389h159.304v-45.389z" fill="#DFDFDF"/><path d="M299.971 175.182c7.465 0 13.517-6.051 13.517-13.516 0-7.466-6.052-13.517-13.517-13.517s-13.517 6.051-13.517 13.517c0 7.465 6.052 13.516 13.517 13.516zM427.169 148.149H323.462v13.074h103.707v-13.074zM427.169 165.655H323.462v4.803h103.707v-4.803z" fill="#F9F9F9"/><path d="M403.109 204.049H253.487v73.612h149.622v-73.612z" fill="#fff"/><path d="M242.668 439.058V261.703h-56.793v177.355h56.793zm-36.411-167.989v-8.137l4.74-.194v3.745l9.844 4.586h-14.584zM169.285 439.058V320.459h-56.793v118.599h56.793zm-34.938-104.987v-8.137l4.74-.193v3.744l9.828 4.586h-14.568zM39.105 439.062v-67.521h56.793v67.521" stroke="#000" stroke-width="2.5" stroke-miterlimit="10" stroke-linecap="round"/><path d="M178.22 187.98c3.95 0 35.641 4.476 49.505 11.598-1.907 9.286-14.374 63.99-14.374 63.99h-7.761s-2.923-46.053-3.555-45.67c-4.199 2.16-20.864 7.611-38.675 7.876" fill="#000"/><path d="M187.044 131.029c2.706 1.932 6.933 5.629 7.849 7.181 10.736-13.351 28.416-26.82 29.862-28.376 1.446-1.557 1.896-10.227 1.896-12.123 0-1.896 2.615-6.948 5.135-6.948v22.732S202.2 154.99 197.33 154.99c-2.512 0-12.908-4.345-18.138-7.161" stroke="#000" stroke-width="2.5" stroke-linecap="round" stroke-linejoin="round"/><path d="M169.364 120.42c7.9 1.137 18.269 6.292 18.289 8.342.023 2.37-5.112 11.404-9.145 15.125M176.869 80.604a5.331 5.331 0 00.759-2.765c0-3.555-2.987-4.021-4.345-5.135-1.446-1.185-.826-4.768-4.74-4.768-3.508 0-5.234 3.685-7.478 5.103-2.713 1.719-8.038.336-11.546 3.95-1.702 1.754-2.101 6.072-3.16 7.652-1.445 2.14-3.95 2.765-3.95 6.031 0 1.975 1.387 5.076 3.243 6.435" stroke="#000" stroke-width="2.5" stroke-miterlimit="10" stroke-linecap="round"/><path d="M162.795 114.783c21.239 10.784 19.537 70.026 15.425 73.197-4.527 3.488-41.68 5.187-45.077 0-1.58-2.417-2.71-18.809-.719-35.644M142.461 120.511c2.464-3.326 5.431-5.732 8.978-6.798" stroke="#000" stroke-width="2.5" stroke-miterlimit="10" stroke-linecap="round"/><path d="M121.455 138.278c-5.981 6.817-14.971 24.3-14.971 27.424 0 7.9 26.671 42.696 30.064 42.696 1.414-2.453 3.677-7.541 3.677-7.541s-16.021-29.877-18.96-33.74c2.544-2.37 11.779-14.797 13.288-18.66.2-.526.357-1.068.47-1.62" stroke="#000" stroke-width="2.5" stroke-miterlimit="10" stroke-linecap="round"/><path d="M137.875 147.525c-3.018.189-17.353-7.47-17.353-11.222 0-3.018 15.682-19.268 22.444-15.559.964.529 1.58 1.485 1.975 2.733M162.795 114.783v-4.973M151.439 100.994v14.176c0 1.999 2.84 3.018 5.68 3.026M162.795 109.81a7.659 7.659 0 001.339-.19c5.842-1.362 8.959-9.409 6.96-17.964a22.865 22.865 0 00-1.552-4.5" stroke="#000" stroke-width="2.5" stroke-miterlimit="10" stroke-linecap="round"/><path d="M149.389 92.979a3.72 3.72 0 00-1.41 6.381 3.724 3.724 0 002.437.915c.228-.003.455-.025.679-.067.111.264.226.529.344.79" stroke="#000" stroke-width="2.5" stroke-miterlimit="10" stroke-linecap="round"/><path d="M133.384 187.98v.253c3.728 6.822 6.841 12.64 6.841 12.64s-2.263 5.088-3.677 7.541c-.538 0-1.659-.877-3.16-2.37v120.104h6.837L178.22 187.98c-2.445 2.015-36.02 6.755-44.836 0z" fill="#000"/><path d="M134.347 325.934v8.137h14.568l-9.839-4.586v-3.744M206.257 262.932v8.137h14.572l-9.844-4.586v-3.745" stroke="#000" stroke-width="2.5" stroke-linecap="round" stroke-linejoin="round"/></svg>